<svg width="24" height="25" viewBox="0 0 24 25" fill="none" xmlns="http://www.w3.org/2000/svg">
<path d="M16 2.5L13.7 4.8C13.1504 5.36079 12.8425 6.11474 12.8425 6.9C12.8425 7.68526 13.1504 8.43921 13.7 9L15.5 10.8C16.0608 11.3497 16.8148 11.6576 17.6 11.6576C18.3853 11.6576 19.1393 11.3497 19.7 10.8L22 8.5M15 15.5L3.30004 3.8C2.90092 4.19105 2.58385 4.65782 2.36739 5.17295C2.15092 5.68809 2.03943 6.24123 2.03943 6.8C2.03943 7.35877 2.15092 7.91191 2.36739 8.42705C2.58385 8.94218 2.90092 9.40895 3.30004 9.8L10.6 17.1C11.3 17.8 12.6 17.8 13.4 17.1L15 15.5ZM15 15.5L22 22.5M2.10004 22.3L8.50004 16M19 5.5L12 12.5" stroke="#5F5FF7" stroke-width="1.5" stroke-linecap="round" stroke-linejoin="round"/>
</svg>
