<svg width="24" height="25" viewBox="0 0 24 25" fill="none" xmlns="http://www.w3.org/2000/svg">
<path d="M5.63002 13.58L5.62002 18.27C5.62002 19.54 6.60002 20.9 7.80002 21.3L10.99 22.36C11.54 22.54 12.45 22.54 13.01 22.36L16.2 21.3C17.4 20.9 18.38 19.54 18.38 18.27V13.63M21.4 15.5V9.49997M10.05 3.02997L4.03002 6.95997C2.10002 8.21997 2.10002 11.04 4.03002 12.3L10.05 16.23C11.13 16.94 12.91 16.94 13.99 16.23L19.98 12.3C21.9 11.04 21.9 8.22997 19.98 6.96997L13.99 3.03997C12.91 2.31997 11.13 2.31997 10.05 3.02997Z" stroke="#5F5FF7" stroke-width="1.5" stroke-linecap="round" stroke-linejoin="round"/>
</svg>
