<svg width="24" height="25" viewBox="0 0 24 25" fill="none" xmlns="http://www.w3.org/2000/svg">
<path d="M22 15.5C22 19.37 18.87 22.5 15 22.5L16.05 20.75M2 9.5C2 5.63 5.13 2.5 9 2.5L7.95001 4.25M6.69995 9.76011L11.9999 12.8301L17.2599 9.78011M11.9999 18.2701V12.8201M10.76 6.79035L7.56 8.57034C6.84 8.97034 6.23999 9.98034 6.23999 10.8103V14.2003C6.23999 15.0303 6.83 16.0403 7.56 16.4403L10.76 18.2203C11.44 18.6003 12.56 18.6003 13.25 18.2203L16.45 16.4403C17.17 16.0403 17.77 15.0303 17.77 14.2003V10.8003C17.77 9.97035 17.18 8.96034 16.45 8.56034L13.25 6.78034C12.56 6.40034 11.44 6.40035 10.76 6.79035Z" stroke="#5F5FF7" stroke-width="1.5" stroke-linecap="round" stroke-linejoin="round"/>
</svg>
