<svg width="24" height="25" viewBox="0 0 24 25" fill="none" xmlns="http://www.w3.org/2000/svg">
<path d="M9.82 12.5H14.18M22.5 15V10M1.5 15V10M17.18 18.5C19.58 18.5 20.18 17.15 20.18 15.5V9.5C20.18 7.85 19.58 6.5 17.18 6.5C14.78 6.5 14.18 7.85 14.18 9.5V15.5C14.18 17.15 14.78 18.5 17.18 18.5ZM6.82 18.5C4.42 18.5 3.82 17.15 3.82 15.5V9.5C3.82 7.85 4.42 6.5 6.82 6.5C9.22 6.5 9.82 7.85 9.82 9.5V15.5C9.82 17.15 9.22 18.5 6.82 18.5Z" stroke="#5F5FF7" stroke-width="1.5" stroke-linecap="round" stroke-linejoin="round"/>
</svg>
